<svg xmlns="http://www.w3.org/2000/svg" width="198.359" height="334.616" viewBox="0 0 198.359 334.616"><defs><style>.a{fill:#344847;}.b{fill:#3d6158;}.c{fill:#d9ab76;}</style></defs><g transform="translate(-335.643 -185.707)"><g transform="translate(335.643 185.707)"><path class="a" d="M810.038,1194.909s8.031-.988,11.381.813c2.61,1.4,5.419,7.045,5.419,7.045s.641-6.439,2.981-8.129c2.271-1.641,8.4-.271,8.4-.271s-8.189-9.285-9.89-15.039c-3.613-12.216-2.594-25.8.253-38.217,15.02-65.51,113.824-54.889,109.194-272.961C919.1,936.1,852.091,981.883,825.9,1036.5c-16.135,40.12-11.838,67.1-5.365,104.614,1.8,12.52,2.792,25.8-.766,37.937-1.745,5.952-9.729,15.86-9.729,15.86Z" transform="translate(-739.573 -868.151)"/><path class="b" d="M789.535,1205.318s-11.072-10.431-12.263-17.436c-10.682-62.83-56.307-43.519-64.507-100.156-18.527,86.067,35.231,85.262,60.913,105.28,6.23,4.856,16.583,16.926,16.583,16.926Z" transform="translate(-708.958 -934.656)"/><path class="c" d="M784.075,1131.414c10.093-15.461,19.59-24.959,18.653-51.045-.31-16.144-7.984-28.734-18.27-40.541-11.321,11.217-21.978,24.769-21.39,40.6C762.583,1108.136,773.231,1115.136,784.075,1131.414Z" transform="translate(-725.34 -920.149)"/></g></g></svg>